# xmcd
#
# Track frame offsets: 
#        150
#        18717
#        34651
#        55176
#        73872
#        94791
#        112310
#        131697
#
# Disc length: 2091 seconds
#
# Revision: 0
# Processed by: cddbd v1.5.2PL0 Copyright (c) Steve Scherf et al.
# Submitted via: ExactAudioCopy v1.0b3
#
DISCID=74082908
DTITLE=Rachelle Garniez - Sad-Dead-Alive-Happy
DYEAR=2012
DGENRE=
TTITLE0=Jean Claude VanDamme
TTITLE1=Fighters
TTITLE2=My House of Peace
TTITLE3=Lunasa
TTITLE4=Parallel Universe
TTITLE5=Just Because You Can
TTITLE6=God`s Little Acre
TTITLE7=Land of the Living
EXTD=
EXTT0=
EXTT1=
EXTT2=
EXTT3=
EXTT4=
EXTT5=
EXTT6=
EXTT7=
PLAYORDER=
